<svg aria-hidden="true" style="position:absolute;width:0;height:0;overflow:hidden" xmlns="http://www.w3.org/2000/svg">
  <defs>
    <symbol id="icon-email-modal" viewBox="0 0 32 32">
      <path
        d="M26.667 5.333H5.334A2.663 2.663 0 0 0 2.681 8l-.013 16c0 1.467 1.2 2.667 2.667 2.667h21.333c1.467 0 2.667-1.2 2.667-2.667V8c0-1.467-1.2-2.667-2.667-2.667zM26.133 11l-9.427 5.893a1.346 1.346 0 0 1-1.413 0L5.866 11a1.132 1.132 0 1 1 1.2-1.92l8.933 5.587 8.933-5.587a1.132 1.132 0 1 1 1.2 1.92z" />
    </symbol>
    <symbol id="icon-icon-check" viewBox="0 0 44 32">
      <path d="M13.983 25.247l-10.431-9.951-3.552 3.365 13.983 13.339 30.017-28.635-3.527-3.365-26.49 25.247z"></path>
    </symbol>
    <symbol id="icon-phone-modal" viewBox="0 0 32 32">
      <path
        d="m24.882 19.773-3.268-.373a2.561 2.561 0 0 0-2.11.733L17.137 22.5a19.357 19.357 0 0 1-8.478-8.478l2.38-2.38a2.561 2.561 0 0 0 .733-2.11l-.373-3.242a2.575 2.575 0 0 0-2.56-2.277H6.613c-1.454 0-2.663 1.209-2.573 2.663.682 10.987 9.469 19.761 20.443 20.443 1.454.09 2.663-1.119 2.663-2.573V22.32a2.549 2.549 0 0 0-2.264-2.547z" />
    </symbol>
    <symbol id="icon-user-modal" viewBox="0 0 32 32">
      <path
        d="M16 16c2.947 0 5.333-2.387 5.333-5.333S18.946 5.334 16 5.334c-2.947 0-5.333 2.387-5.333 5.333S13.054 16 16 16zm0 2.667c-3.56 0-10.667 1.787-10.667 5.333v1.333c0 .733.6 1.333 1.333 1.333h18.667c.733 0 1.333-.6 1.333-1.333V24c0-3.547-7.107-5.333-10.667-5.333z" />
    </symbol>
    <symbol id="icon-icon-send" viewBox="0 0 32 32">
      <path fill="#fff" style="fill: var(--color1, #fff)"
        d="M32 0l-32 18 10.227 3.788 15.773-14.788-11.998 16.186 0.010 0.004-0.012-0.004v8.814l5.735-6.691 7.265 2.691 5-28z">
      </path>
    </symbol>
    <symbol id="menu-mobile-close" viewBox="0 0 32 32">
      <path
        d="M23.733 10.304l-1.504-1.504-5.963 5.963-5.963-5.963-1.504 1.504 5.963 5.963-5.963 5.963 1.504 1.504 5.963-5.963 5.963 5.963 1.504-1.504-5.963-5.963 5.963-5.963z">
      </path>
    </symbol>
    <symbol id="menu-mobile" viewBox="0 0 32 32">
      <path
        d="M6.4 11.733v-2.133h19.2v2.133h-19.2zM6.4 17.067h19.2v-2.133h-19.2v2.133zM6.4 22.4h19.2v-2.133h-19.2v2.133z">
      </path>
    </symbol>
    <symbol id="icon-check" viewBox="0 0 34 32">
      <path stroke-linejoin="miter" stroke-linecap="butt" stroke-miterlimit="4" stroke-width="0.4267"
        d="M8.442 16.537l-0.147-0.14-2.205 2.088 7.767 7.41 16.318-15.567-2.19-2.089-14.128 13.465-5.416-5.167z"></path>
    </symbol>
  </defs>
</svg>